# xmcd CD database file
#
# Track frame offsets:
#	150
#	14782
#	26672
#	43897
#	59831
#	73994
#	87691
#	102303
#	117863
#	136469
#	151582
#
# Disc length: 2172 seconds
#
# Revision: 0
# Processed by: cddbd v1.5.1PL0 Copyright (c) Steve Scherf et al.
# Submitted via: CDex 1.51
#
DISCID=a5087a0b
DTITLE=Short and Horny - That's What Daddy Wants
DYEAR=2000
DGENRE=Jazz
TTITLE0=Perdido
TTITLE1=Mac The Knife
TTITLE2=Minnie The Moocher
TTITLE3=Wonderful World
TTITLE4=Brown Eyed Girl
TTITLE5=T'aint What You Do
TTITLE6=I Still Call Australia Home
TTITLE7=I Wanna Be Like You
TTITLE8=You're Nobody 'Til Somebody Loves You
TTITLE9=That's What Daddy Wants
TTITLE10=I Still Wanna Boogie
EXTD=YEAR: 2000
EXTT0=
EXTT1=
EXTT2=
EXTT3=
EXTT4=
EXTT5=
EXTT6=
EXTT7=
EXTT8=
EXTT9=
EXTT10=
PLAYORDER=
